<?xml version="1.0" standalone="no"?>
<!DOCTYPE svg PUBLIC "-//W3C//DTD SVG 20010904//EN"
 "http://www.w3.org/TR/2001/REC-SVG-20010904/DTD/svg10.dtd">
<svg version="1.0" xmlns="http://www.w3.org/2000/svg"
 width="114.000000pt" height="34.500000pt" viewBox="0 0 114.000000 40.000000"
 preserveAspectRatio="xMidYMid meet">

<g transform="translate(0.000000,40.000000) scale(0.100000,-0.100000)"
fill="#333333" stroke="none">
<path d="M88 294 c-43 -41 -78 -81 -78 -87 0 -19 153 -167 173 -167 10 0 42
23 72 51 l54 51 59 -51 c32 -28 65 -51 72 -51 7 0 40 23 72 51 l59 51 54 -51
c30 -28 62 -51 72 -51 9 0 42 25 73 55 l56 55 54 -55 c31 -31 63 -55 75 -55
21 0 175 146 175 165 0 18 -155 165 -173 165 -10 0 -42 -22 -71 -50 -29 -27
-57 -50 -62 -50 -6 0 -32 23 -59 50 -27 28 -58 50 -68 50 -10 0 -43 -23 -72
-51 l-54 -51 -58 51 c-63 56 -81 61 -109 30 -10 -12 -36 -35 -57 -51 l-38 -30
-54 51 c-29 28 -62 51 -72 51 -10 0 -53 -34 -95 -76z m160 16 l53 -49 -18 -27
c-16 -24 -16 -29 -1 -54 16 -28 15 -28 -36 -79 -28 -28 -58 -51 -66 -51 -16 0
-160 139 -160 155 0 16 143 155 160 155 8 -1 39 -23 68 -50z m258 -1 c52 -51
52 -52 36 -77 -15 -22 -15 -27 0 -52 16 -28 15 -28 -36 -79 -28 -28 -58 -51
-67 -51 -8 0 -38 24 -66 53 -48 48 -51 54 -37 71 18 25 18 37 -1 62 -14 18
-14 17 -3 -9 10 -23 9 -30 -5 -44 -13 -13 -19 -14 -31 -3 -9 7 -16 17 -16 23
0 17 142 157 159 157 9 0 39 -23 67 -51z m262 -2 c47 -47 51 -55 38 -67 -9 -7
-16 -23 -16 -35 0 -12 7 -28 16 -35 13 -12 9 -20 -38 -67 -29 -29 -59 -53 -67
-53 -9 0 -39 23 -67 51 -51 51 -52 51 -36 79 15 25 15 30 0 51 -16 23 -15 25
35 77 28 28 58 52 67 52 9 0 39 -24 68 -53z m279 -19 c40 -40 73 -77 73 -83 0
-16 -144 -155 -161 -155 -8 0 -39 25 -69 55 -53 54 -54 55 -35 75 16 17 17 24
7 38 -26 37 -24 44 29 92 30 27 61 49 69 50 8 0 47 -33 87 -72z m-453 -71 c16
-25 -16 -56 -38 -37 -19 15 -20 32 -4 48 15 15 28 11 42 -11z m260 1 c16 -26
-16 -57 -38 -38 -17 13 -21 42 -9 54 11 11 35 3 47 -16z"/>
<path d="M124 274 c3 -8 6 -18 6 -20 0 -3 5 -2 10 1 15 9 12 22 -6 29 -12 5
-15 2 -10 -10z"/>
<path d="M195 270 l-30 -8 28 -1 c20 -1 27 -6 27 -22 0 -16 -4 -19 -20 -14
-15 5 -23 0 -32 -22 l-12 -28 -4 33 c-2 23 -8 32 -21 32 -16 0 -18 -6 -13 -47
6 -59 7 -60 31 -39 17 16 19 16 24 -4 4 -15 13 -20 41 -20 37 0 55 18 41 41
-6 8 -10 7 -17 -5 -15 -27 -38 -19 -38 14 0 27 2 30 25 24 24 -6 25 -4 25 35
0 43 -2 44 -55 31z"/>
<path d="M435 279 l-50 -6 45 -3 45 -3 -45 -7 c-33 -4 -40 -8 -27 -14 9 -5 24
-6 32 -3 8 4 17 2 20 -3 4 -6 -13 -10 -40 -10 l-45 0 16 -25 c15 -23 15 -25 0
-31 -9 -3 -16 -10 -16 -15 0 -14 22 -10 42 8 16 14 18 14 18 0 0 -8 -6 -17
-12 -20 -9 -3 -7 -7 6 -12 18 -8 40 11 30 27 -9 15 13 8 26 -7 9 -11 16 -13
24 -5 7 7 5 14 -7 23 -17 12 -17 14 2 34 16 17 17 22 6 27 -7 2 -15 15 -17 28
-3 21 -6 23 -53 17z m-5 -74 c0 -8 -4 -15 -9 -15 -5 0 -11 7 -15 15 -3 9 0 15
9 15 8 0 15 -7 15 -15z m55 5 c-3 -5 -10 -10 -16 -10 -5 0 -9 5 -9 10 0 6 7
10 16 10 8 0 12 -4 9 -10z"/>
<path d="M730 265 c0 -8 -9 -15 -20 -15 -11 0 -20 5 -20 10 0 6 -15 10 -32 10
l-33 0 3 -64 c4 -63 4 -65 30 -63 22 2 28 8 33 37 4 19 7 27 8 16 1 -12 6 -16
16 -12 10 4 15 -1 15 -14 0 -11 -4 -20 -10 -20 -5 0 -10 -5 -10 -11 0 -6 10
-9 23 -7 19 3 22 10 25 53 2 27 9 53 15 57 9 6 9 8 0 8 -7 0 -13 7 -13 15 0 8
-7 15 -15 15 -8 0 -15 -7 -15 -15z m-73 -37 c-3 -8 -6 -5 -6 6 -1 11 2 17 5
13 3 -3 4 -12 1 -19z m73 -8 c0 -18 -2 -19 -20 -8 -11 7 -20 16 -20 20 0 5 9
8 20 8 13 0 20 -7 20 -20z m-73 -52 c-3 -7 -5 -2 -5 12 0 14 2 19 5 13 2 -7 2
-19 0 -25z"/>
<path d="M904 258 c4 -17 2 -28 -4 -28 -5 0 -10 -4 -10 -10 0 -5 7 -10 15 -10
19 0 19 -21 0 -46 -19 -25 -19 -35 0 -27 9 3 24 22 35 42 l19 36 1 -31 c0 -37
20 -57 52 -52 27 4 40 48 14 48 -9 0 -16 -7 -16 -16 0 -8 -4 -12 -10 -9 -5 3
-10 17 -10 31 0 17 5 24 20 24 11 0 20 5 20 10 0 6 -13 10 -30 10 -25 0 -30 4
-30 25 0 14 -6 25 -14 25 -8 0 -12 -9 -11 -24 2 -14 -3 -27 -12 -30 -10 -4
-13 -1 -8 13 3 11 -1 24 -11 32 -16 13 -17 11 -10 -13z"/>
<path d="M987 259 c-6 -22 6 -25 22 -5 9 10 8 15 -3 19 -8 3 -16 -2 -19 -14z"/>
</g>
</svg>
